<?xml version="1.0" standalone="no"?>
<!DOCTYPE svg PUBLIC "-//W3C//DTD SVG 20010904//EN"
 "http://www.w3.org/TR/2001/REC-SVG-20010904/DTD/svg10.dtd">
<svg version="1.0" xmlns="http://www.w3.org/2000/svg"
 width="800.000000pt" height="800.000000pt" viewBox="0 0 800.000000 800.000000"
 preserveAspectRatio="xMidYMid meet">

<g transform="translate(0.000000,800.000000) scale(0.100000,-0.100000)"
fill="#000000" stroke="none">
<path d="M1320 6658 c-32 -17 -51 -37 -68 -68 l-22 -45 2 -2561 3 -2561 29
-37 c48 -63 129 -84 193 -49 27 15 595 561 2217 2131 l230 222 36 -34 c19 -18
339 -305 710 -637 371 -332 932 -833 1245 -1114 314 -280 587 -524 607 -542
92 -79 224 -39 259 77 27 90 105 15 -1293 1266 -699 627 -1287 1153 -1306
1169 l-34 30 418 405 c230 223 556 538 724 700 168 162 565 546 883 854 556
538 617 602 617 654 0 35 -29 89 -64 120 -45 39 -95 49 -144 30 -20 -8 -305
-170 -632 -360 -327 -190 -1094 -634 -1705 -987 -743 -430 -1122 -655 -1146
-680 -46 -47 -57 -100 -34 -158 13 -33 77 -95 321 -314 290 -259 304 -273 287
-289 -26 -24 -530 -511 -1372 -1325 -398 -385 -728 -701 -732 -703 -5 -2 -9
1043 -9 2356 l0 2359 -22 33 c-53 77 -123 97 -198 58z m4155 -1016 c-55 -53
-424 -410 -820 -793 -396 -383 -726 -703 -734 -712 -7 -9 -18 -17 -23 -17 -10
0 -438 380 -438 390 0 3 357 213 793 465 435 253 909 528 1052 611 143 84 262
153 265 153 3 0 -40 -43 -95 -97z"/>
</g>
</svg>
